<mxfile host="app.diagrams.net" modified="2020-12-09T13:34:47.676Z" agent="5.0 (Windows NT 10.0; Win64; x64) AppleWebKit/537.36 (KHTML, like Gecko) Chrome/86.0.4240.198 Safari/537.36" etag="ca2qAuzHYwWDy32AvC4U" version="14.0.0" type="github" pages="2">
  <diagram id="kgpKYQtTHZ0yAKxKKP6v" name="Page-1">
    <mxGraphModel dx="1038" dy="580" grid="1" gridSize="10" guides="1" tooltips="1" connect="1" arrows="1" fold="1" page="1" pageScale="1" pageWidth="850" pageHeight="1100" math="0" shadow="0">
      <root>
        <mxCell id="0" />
        <mxCell id="1" parent="0" />
        <mxCell id="_vG_lbyU3aJRpIIk6WNr-1" value="" style="shape=umlLifeline;participant=umlActor;perimeter=lifelinePerimeter;whiteSpace=wrap;html=1;container=1;collapsible=0;recursiveResize=0;verticalAlign=top;spacingTop=36;outlineConnect=0;" vertex="1" parent="1">
          <mxGeometry x="120" y="30" width="20" height="770" as="geometry" />
        </mxCell>
        <mxCell id="_vG_lbyU3aJRpIIk6WNr-6" value="" style="html=1;points=[];perimeter=orthogonalPerimeter;" vertex="1" parent="_vG_lbyU3aJRpIIk6WNr-1">
          <mxGeometry x="5" y="90" width="10" height="580" as="geometry" />
        </mxCell>
        <mxCell id="_vG_lbyU3aJRpIIk6WNr-2" value=":GUISystem" style="shape=umlLifeline;perimeter=lifelinePerimeter;whiteSpace=wrap;html=1;container=1;collapsible=0;recursiveResize=0;outlineConnect=0;" vertex="1" parent="1">
          <mxGeometry x="260" y="40" width="100" height="760" as="geometry" />
        </mxCell>
        <mxCell id="_vG_lbyU3aJRpIIk6WNr-7" value="" style="html=1;points=[];perimeter=orthogonalPerimeter;" vertex="1" parent="_vG_lbyU3aJRpIIk6WNr-2">
          <mxGeometry x="45" y="90" width="10" height="50" as="geometry" />
        </mxCell>
        <mxCell id="_vG_lbyU3aJRpIIk6WNr-11" value="" style="html=1;points=[];perimeter=orthogonalPerimeter;" vertex="1" parent="_vG_lbyU3aJRpIIk6WNr-2">
          <mxGeometry x="45" y="150" width="10" height="50" as="geometry" />
        </mxCell>
        <mxCell id="_vG_lbyU3aJRpIIk6WNr-16" value="Gửi thông tin mặt hàng" style="html=1;verticalAlign=bottom;endArrow=block;" edge="1" parent="_vG_lbyU3aJRpIIk6WNr-2" target="_vG_lbyU3aJRpIIk6WNr-3">
          <mxGeometry width="80" relative="1" as="geometry">
            <mxPoint x="60" y="200" as="sourcePoint" />
            <mxPoint x="140" y="200" as="targetPoint" />
          </mxGeometry>
        </mxCell>
        <mxCell id="_vG_lbyU3aJRpIIk6WNr-20" value="" style="html=1;points=[];perimeter=orthogonalPerimeter;" vertex="1" parent="_vG_lbyU3aJRpIIk6WNr-2">
          <mxGeometry x="45" y="240" width="10" height="30" as="geometry" />
        </mxCell>
        <mxCell id="_vG_lbyU3aJRpIIk6WNr-21" value="Thêm mặt hàng vào giỏ" style="html=1;verticalAlign=bottom;endArrow=open;dashed=1;endSize=8;" edge="1" parent="_vG_lbyU3aJRpIIk6WNr-2" source="_vG_lbyU3aJRpIIk6WNr-3">
          <mxGeometry relative="1" as="geometry">
            <mxPoint x="140" y="260" as="sourcePoint" />
            <mxPoint x="60" y="260" as="targetPoint" />
          </mxGeometry>
        </mxCell>
        <mxCell id="_vG_lbyU3aJRpIIk6WNr-27" value="" style="html=1;points=[];perimeter=orthogonalPerimeter;" vertex="1" parent="_vG_lbyU3aJRpIIk6WNr-2">
          <mxGeometry x="45" y="350" width="10" height="60" as="geometry" />
        </mxCell>
        <mxCell id="_vG_lbyU3aJRpIIk6WNr-32" value="Gửi thông tin mặt hàng cần sửa" style="html=1;verticalAlign=bottom;endArrow=block;" edge="1" parent="_vG_lbyU3aJRpIIk6WNr-2" target="_vG_lbyU3aJRpIIk6WNr-3">
          <mxGeometry width="80" relative="1" as="geometry">
            <mxPoint x="60" y="410" as="sourcePoint" />
            <mxPoint x="140" y="410" as="targetPoint" />
          </mxGeometry>
        </mxCell>
        <mxCell id="_vG_lbyU3aJRpIIk6WNr-35" value="" style="html=1;points=[];perimeter=orthogonalPerimeter;" vertex="1" parent="_vG_lbyU3aJRpIIk6WNr-2">
          <mxGeometry x="45" y="450" width="10" height="30" as="geometry" />
        </mxCell>
        <mxCell id="_vG_lbyU3aJRpIIk6WNr-36" value="Chỉnh sửa số lượng mặt hàng" style="html=1;verticalAlign=bottom;endArrow=open;dashed=1;endSize=8;" edge="1" parent="_vG_lbyU3aJRpIIk6WNr-2" source="_vG_lbyU3aJRpIIk6WNr-3">
          <mxGeometry relative="1" as="geometry">
            <mxPoint x="150" y="470" as="sourcePoint" />
            <mxPoint x="60" y="470" as="targetPoint" />
          </mxGeometry>
        </mxCell>
        <mxCell id="_vG_lbyU3aJRpIIk6WNr-41" value="" style="html=1;points=[];perimeter=orthogonalPerimeter;" vertex="1" parent="_vG_lbyU3aJRpIIk6WNr-2">
          <mxGeometry x="45" y="550" width="10" height="110" as="geometry" />
        </mxCell>
        <mxCell id="_vG_lbyU3aJRpIIk6WNr-46" value="Gửi thông tin mặt hàng" style="html=1;verticalAlign=bottom;endArrow=block;" edge="1" parent="_vG_lbyU3aJRpIIk6WNr-2" target="_vG_lbyU3aJRpIIk6WNr-3">
          <mxGeometry width="80" relative="1" as="geometry">
            <mxPoint x="60" y="620" as="sourcePoint" />
            <mxPoint x="140" y="620" as="targetPoint" />
          </mxGeometry>
        </mxCell>
        <mxCell id="_vG_lbyU3aJRpIIk6WNr-47" value="Xóa mặt hàng trong giỏ" style="html=1;verticalAlign=bottom;endArrow=open;dashed=1;endSize=8;" edge="1" parent="_vG_lbyU3aJRpIIk6WNr-2" source="_vG_lbyU3aJRpIIk6WNr-3">
          <mxGeometry relative="1" as="geometry">
            <mxPoint x="140" y="640" as="sourcePoint" />
            <mxPoint x="60" y="640" as="targetPoint" />
          </mxGeometry>
        </mxCell>
        <mxCell id="_vG_lbyU3aJRpIIk6WNr-3" value=":ShopCart" style="shape=umlLifeline;perimeter=lifelinePerimeter;whiteSpace=wrap;html=1;container=1;collapsible=0;recursiveResize=0;outlineConnect=0;" vertex="1" parent="1">
          <mxGeometry x="480" y="40" width="100" height="760" as="geometry" />
        </mxCell>
        <mxCell id="_vG_lbyU3aJRpIIk6WNr-15" value="" style="html=1;points=[];perimeter=orthogonalPerimeter;" vertex="1" parent="_vG_lbyU3aJRpIIk6WNr-3">
          <mxGeometry x="45" y="160" width="10" height="160" as="geometry" />
        </mxCell>
        <mxCell id="_vG_lbyU3aJRpIIk6WNr-19" value="Kiểm tra thành công" style="html=1;verticalAlign=bottom;endArrow=open;dashed=1;endSize=8;" edge="1" parent="_vG_lbyU3aJRpIIk6WNr-3" source="_vG_lbyU3aJRpIIk6WNr-4">
          <mxGeometry relative="1" as="geometry">
            <mxPoint x="150" y="250" as="sourcePoint" />
            <mxPoint x="60" y="250" as="targetPoint" />
          </mxGeometry>
        </mxCell>
        <mxCell id="_vG_lbyU3aJRpIIk6WNr-24" value="Kiểm tra thành công" style="html=1;verticalAlign=bottom;endArrow=open;dashed=1;endSize=8;" edge="1" parent="_vG_lbyU3aJRpIIk6WNr-3" source="_vG_lbyU3aJRpIIk6WNr-4">
          <mxGeometry relative="1" as="geometry">
            <mxPoint x="140" y="290" as="sourcePoint" />
            <mxPoint x="60" y="290" as="targetPoint" />
          </mxGeometry>
        </mxCell>
        <mxCell id="_vG_lbyU3aJRpIIk6WNr-31" value="" style="html=1;points=[];perimeter=orthogonalPerimeter;" vertex="1" parent="_vG_lbyU3aJRpIIk6WNr-3">
          <mxGeometry x="45" y="370" width="10" height="150" as="geometry" />
        </mxCell>
        <mxCell id="_vG_lbyU3aJRpIIk6WNr-33" value="Kiểm tra thông tin nhập vào" style="html=1;verticalAlign=bottom;endArrow=block;" edge="1" parent="_vG_lbyU3aJRpIIk6WNr-3" target="_vG_lbyU3aJRpIIk6WNr-4">
          <mxGeometry width="80" relative="1" as="geometry">
            <mxPoint x="60" y="420" as="sourcePoint" />
            <mxPoint x="140" y="420" as="targetPoint" />
          </mxGeometry>
        </mxCell>
        <mxCell id="_vG_lbyU3aJRpIIk6WNr-34" value="Trả về kết quả kiểm tra" style="html=1;verticalAlign=bottom;endArrow=open;dashed=1;endSize=8;" edge="1" parent="_vG_lbyU3aJRpIIk6WNr-3" source="_vG_lbyU3aJRpIIk6WNr-4">
          <mxGeometry relative="1" as="geometry">
            <mxPoint x="150" y="460" as="sourcePoint" />
            <mxPoint x="60" y="460" as="targetPoint" />
          </mxGeometry>
        </mxCell>
        <mxCell id="_vG_lbyU3aJRpIIk6WNr-42" value="" style="html=1;points=[];perimeter=orthogonalPerimeter;" vertex="1" parent="_vG_lbyU3aJRpIIk6WNr-3">
          <mxGeometry x="45" y="570" width="10" height="90" as="geometry" />
        </mxCell>
        <mxCell id="_vG_lbyU3aJRpIIk6WNr-4" value=":Database" style="shape=umlLifeline;perimeter=lifelinePerimeter;whiteSpace=wrap;html=1;container=1;collapsible=0;recursiveResize=0;outlineConnect=0;" vertex="1" parent="1">
          <mxGeometry x="710" y="40" width="100" height="760" as="geometry" />
        </mxCell>
        <mxCell id="_vG_lbyU3aJRpIIk6WNr-17" value="" style="html=1;points=[];perimeter=orthogonalPerimeter;" vertex="1" parent="_vG_lbyU3aJRpIIk6WNr-4">
          <mxGeometry x="45" y="180" width="10" height="370" as="geometry" />
        </mxCell>
        <mxCell id="_vG_lbyU3aJRpIIk6WNr-5" value="Khách hàng" style="text;align=center;fontStyle=1;verticalAlign=middle;spacingLeft=3;spacingRight=3;strokeColor=none;rotatable=0;points=[[0,0.5],[1,0.5]];portConstraint=eastwest;" vertex="1" parent="1">
          <mxGeometry x="90" y="80" width="80" height="26" as="geometry" />
        </mxCell>
        <mxCell id="_vG_lbyU3aJRpIIk6WNr-8" value="Gửi yêu cầu quản lý giỏ hàng" style="html=1;verticalAlign=bottom;endArrow=block;" edge="1" parent="1" target="_vG_lbyU3aJRpIIk6WNr-2">
          <mxGeometry width="80" relative="1" as="geometry">
            <mxPoint x="140" y="140" as="sourcePoint" />
            <mxPoint x="220" y="140" as="targetPoint" />
          </mxGeometry>
        </mxCell>
        <mxCell id="_vG_lbyU3aJRpIIk6WNr-10" value="Hiển thị toàn bộ mặt hàng" style="html=1;verticalAlign=bottom;endArrow=block;" edge="1" parent="1" source="_vG_lbyU3aJRpIIk6WNr-2">
          <mxGeometry width="80" relative="1" as="geometry">
            <mxPoint x="190" y="160" as="sourcePoint" />
            <mxPoint x="140" y="160" as="targetPoint" />
          </mxGeometry>
        </mxCell>
        <mxCell id="_vG_lbyU3aJRpIIk6WNr-12" value="Gửi yêu cầu thêm mặt hàng vào giỏ" style="html=1;verticalAlign=bottom;endArrow=block;" edge="1" parent="1" target="_vG_lbyU3aJRpIIk6WNr-2">
          <mxGeometry x="-0.41" width="80" relative="1" as="geometry">
            <mxPoint x="140" y="200" as="sourcePoint" />
            <mxPoint x="230" y="200" as="targetPoint" />
            <mxPoint as="offset" />
          </mxGeometry>
        </mxCell>
        <mxCell id="_vG_lbyU3aJRpIIk6WNr-13" value="Hiển thị các mặt hàng" style="html=1;verticalAlign=bottom;endArrow=block;" edge="1" parent="1" source="_vG_lbyU3aJRpIIk6WNr-2">
          <mxGeometry width="80" relative="1" as="geometry">
            <mxPoint x="180" y="220" as="sourcePoint" />
            <mxPoint x="140" y="220" as="targetPoint" />
          </mxGeometry>
        </mxCell>
        <mxCell id="_vG_lbyU3aJRpIIk6WNr-14" value="Chọn mặt hàng cần thêm" style="html=1;verticalAlign=bottom;endArrow=block;" edge="1" parent="1" target="_vG_lbyU3aJRpIIk6WNr-2">
          <mxGeometry width="80" relative="1" as="geometry">
            <mxPoint x="140" y="240" as="sourcePoint" />
            <mxPoint x="220" y="240" as="targetPoint" />
          </mxGeometry>
        </mxCell>
        <mxCell id="_vG_lbyU3aJRpIIk6WNr-18" value="Kiểm tra mặt hàng" style="html=1;verticalAlign=bottom;endArrow=block;" edge="1" parent="1" target="_vG_lbyU3aJRpIIk6WNr-4">
          <mxGeometry width="80" relative="1" as="geometry">
            <mxPoint x="540" y="260" as="sourcePoint" />
            <mxPoint x="620" y="250" as="targetPoint" />
            <Array as="points">
              <mxPoint x="590" y="260" />
            </Array>
          </mxGeometry>
        </mxCell>
        <mxCell id="_vG_lbyU3aJRpIIk6WNr-22" value="Thêm thành công" style="html=1;verticalAlign=bottom;endArrow=open;dashed=1;endSize=8;" edge="1" parent="1" source="_vG_lbyU3aJRpIIk6WNr-2">
          <mxGeometry relative="1" as="geometry">
            <mxPoint x="220" y="300" as="sourcePoint" />
            <mxPoint x="140" y="300" as="targetPoint" />
          </mxGeometry>
        </mxCell>
        <mxCell id="_vG_lbyU3aJRpIIk6WNr-23" value="[ if mặt hàng còn ]" style="text;align=center;fontStyle=1;verticalAlign=middle;spacingLeft=3;spacingRight=3;strokeColor=none;rotatable=0;points=[[0,0.5],[1,0.5]];portConstraint=eastwest;" vertex="1" parent="1">
          <mxGeometry x="30" y="260" width="80" height="26" as="geometry" />
        </mxCell>
        <mxCell id="_vG_lbyU3aJRpIIk6WNr-25" value="Mặt hàng hết số lượng, yêu cầu chọn mặt hàng khác" style="html=1;verticalAlign=bottom;endArrow=open;dashed=1;endSize=8;" edge="1" parent="1" source="_vG_lbyU3aJRpIIk6WNr-3">
          <mxGeometry relative="1" as="geometry">
            <mxPoint x="230" y="340" as="sourcePoint" />
            <mxPoint x="140" y="340" as="targetPoint" />
          </mxGeometry>
        </mxCell>
        <mxCell id="_vG_lbyU3aJRpIIk6WNr-26" value="[ else ]" style="text;align=center;fontStyle=1;verticalAlign=middle;spacingLeft=3;spacingRight=3;strokeColor=none;rotatable=0;points=[[0,0.5],[1,0.5]];portConstraint=eastwest;" vertex="1" parent="1">
          <mxGeometry x="20" y="317" width="80" height="26" as="geometry" />
        </mxCell>
        <mxCell id="_vG_lbyU3aJRpIIk6WNr-28" value="Gửi yêu cầu sửa số lượng mặt hàng" style="html=1;verticalAlign=bottom;endArrow=block;" edge="1" parent="1" target="_vG_lbyU3aJRpIIk6WNr-2">
          <mxGeometry x="-0.292" width="80" relative="1" as="geometry">
            <mxPoint x="140" y="400" as="sourcePoint" />
            <mxPoint x="230" y="400" as="targetPoint" />
            <mxPoint as="offset" />
          </mxGeometry>
        </mxCell>
        <mxCell id="_vG_lbyU3aJRpIIk6WNr-29" value="Hiển thị các mặt hàng" style="html=1;verticalAlign=bottom;endArrow=block;" edge="1" parent="1" source="_vG_lbyU3aJRpIIk6WNr-2">
          <mxGeometry width="80" relative="1" as="geometry">
            <mxPoint x="290" y="420" as="sourcePoint" />
            <mxPoint x="140" y="420" as="targetPoint" />
          </mxGeometry>
        </mxCell>
        <mxCell id="_vG_lbyU3aJRpIIk6WNr-30" value="Sửa số lượng mặt hàng" style="html=1;verticalAlign=bottom;endArrow=block;" edge="1" parent="1" target="_vG_lbyU3aJRpIIk6WNr-2">
          <mxGeometry width="80" relative="1" as="geometry">
            <mxPoint x="140" y="440" as="sourcePoint" />
            <mxPoint x="220" y="440" as="targetPoint" />
          </mxGeometry>
        </mxCell>
        <mxCell id="_vG_lbyU3aJRpIIk6WNr-37" value="Thông báo sửa thành công" style="html=1;verticalAlign=bottom;endArrow=open;dashed=1;endSize=8;" edge="1" parent="1" source="_vG_lbyU3aJRpIIk6WNr-2">
          <mxGeometry relative="1" as="geometry">
            <mxPoint x="220" y="520" as="sourcePoint" />
            <mxPoint x="140" y="520" as="targetPoint" />
          </mxGeometry>
        </mxCell>
        <mxCell id="_vG_lbyU3aJRpIIk6WNr-38" value="Thông báo mặt hàng không tồn tại" style="html=1;verticalAlign=bottom;endArrow=open;dashed=1;endSize=8;" edge="1" parent="1" source="_vG_lbyU3aJRpIIk6WNr-3">
          <mxGeometry relative="1" as="geometry">
            <mxPoint x="230" y="550" as="sourcePoint" />
            <mxPoint x="140" y="550" as="targetPoint" />
          </mxGeometry>
        </mxCell>
        <mxCell id="_vG_lbyU3aJRpIIk6WNr-39" value="[ if mặt hàng tồn tại]" style="text;align=center;fontStyle=1;verticalAlign=middle;spacingLeft=3;spacingRight=3;strokeColor=none;rotatable=0;points=[[0,0.5],[1,0.5]];portConstraint=eastwest;" vertex="1" parent="1">
          <mxGeometry x="20" y="464" width="80" height="26" as="geometry" />
        </mxCell>
        <mxCell id="_vG_lbyU3aJRpIIk6WNr-40" value="[ else ]" style="text;align=center;fontStyle=1;verticalAlign=middle;spacingLeft=3;spacingRight=3;strokeColor=none;rotatable=0;points=[[0,0.5],[1,0.5]];portConstraint=eastwest;" vertex="1" parent="1">
          <mxGeometry x="20" y="534" width="80" height="26" as="geometry" />
        </mxCell>
        <mxCell id="_vG_lbyU3aJRpIIk6WNr-43" value="Gửi yêu cầu xóa mặt hàng" style="html=1;verticalAlign=bottom;endArrow=block;" edge="1" parent="1" target="_vG_lbyU3aJRpIIk6WNr-2">
          <mxGeometry width="80" relative="1" as="geometry">
            <mxPoint x="140" y="610" as="sourcePoint" />
            <mxPoint x="230" y="610" as="targetPoint" />
          </mxGeometry>
        </mxCell>
        <mxCell id="_vG_lbyU3aJRpIIk6WNr-44" value="Hiển thị form xác nhận xóa" style="html=1;verticalAlign=bottom;endArrow=block;" edge="1" parent="1">
          <mxGeometry width="80" relative="1" as="geometry">
            <mxPoint x="300" y="630" as="sourcePoint" />
            <mxPoint x="140" y="630" as="targetPoint" />
          </mxGeometry>
        </mxCell>
        <mxCell id="_vG_lbyU3aJRpIIk6WNr-45" value="Xác nhận xóa" style="html=1;verticalAlign=bottom;endArrow=block;" edge="1" parent="1" target="_vG_lbyU3aJRpIIk6WNr-2">
          <mxGeometry width="80" relative="1" as="geometry">
            <mxPoint x="140" y="650" as="sourcePoint" />
            <mxPoint x="220" y="650" as="targetPoint" />
          </mxGeometry>
        </mxCell>
        <mxCell id="_vG_lbyU3aJRpIIk6WNr-48" value="Xóa thành công" style="html=1;verticalAlign=bottom;endArrow=open;dashed=1;endSize=8;" edge="1" parent="1" source="_vG_lbyU3aJRpIIk6WNr-2">
          <mxGeometry relative="1" as="geometry">
            <mxPoint x="240" y="690" as="sourcePoint" />
            <mxPoint x="140" y="690" as="targetPoint" />
          </mxGeometry>
        </mxCell>
      </root>
    </mxGraphModel>
  </diagram>
  <diagram id="7b8dnlwm88wTHCP1lQ_1" name="Page-2">
    <mxGraphModel dx="1038" dy="580" grid="1" gridSize="10" guides="1" tooltips="1" connect="1" arrows="1" fold="1" page="1" pageScale="1" pageWidth="827" pageHeight="1169" math="0" shadow="0">
      <root>
        <mxCell id="xV-T_OnYQbcKChcXy6SU-0" />
        <mxCell id="xV-T_OnYQbcKChcXy6SU-1" parent="xV-T_OnYQbcKChcXy6SU-0" />
      </root>
    </mxGraphModel>
  </diagram>
</mxfile>
